<?xml version="1.0" encoding="UTF-8" standalone="no"?>
<!-- Created with Inkscape (http://www.inkscape.org/) -->

<svg
   xmlns:dc="http://purl.org/dc/elements/1.1/"
   xmlns:cc="http://creativecommons.org/ns#"
   xmlns:rdf="http://www.w3.org/1999/02/22-rdf-syntax-ns#"
   xmlns:svg="http://www.w3.org/2000/svg"
   xmlns="http://www.w3.org/2000/svg"
   xmlns:sodipodi="http://sodipodi.sourceforge.net/DTD/sodipodi-0.dtd"
   xmlns:inkscape="http://www.inkscape.org/namespaces/inkscape"
   width="100mm"
   height="100mm"
   viewBox="0 0 354.33071 354.33071"
   id="svg4136"
   version="1.1"
   inkscape:version="0.91 r13725"
   sodipodi:docname="alchemistry.svg">
  <defs
     id="defs4138">
    <style
       id="style628"
       type="text/css"><![CDATA[
    .fil0 {fill:#000000}
   ]]></style>
    <style
       id="style628-0"
       type="text/css"><![CDATA[
    .fil0 {fill:#000000}
   ]]></style>
    <style
       id="style640"
       type="text/css"><![CDATA[
    .fil0 {fill:#000000}
   ]]></style>
  </defs>
  <sodipodi:namedview
     id="base"
     pagecolor="#ffffff"
     bordercolor="#666666"
     borderopacity="1.0"
     inkscape:pageopacity="0"
     inkscape:pageshadow="2"
     inkscape:zoom="1.979899"
     inkscape:cx="141.36068"
     inkscape:cy="198.20228"
     inkscape:document-units="px"
     inkscape:current-layer="layer1"
     showgrid="false"
     inkscape:window-width="1920"
     inkscape:window-height="1056"
     inkscape:window-x="0"
     inkscape:window-y="24"
     inkscape:window-maximized="1" />
  <metadata
     id="metadata4141">
    <rdf:RDF>
      <cc:Work
         rdf:about="">
        <dc:format>image/svg+xml</dc:format>
        <dc:type
           rdf:resource="http://purl.org/dc/dcmitype/StillImage" />
        <dc:title></dc:title>
      </cc:Work>
    </rdf:RDF>
  </metadata>
  <g
     inkscape:label="Layer 1"
     inkscape:groupmode="layer"
     id="layer1"
     transform="translate(0,-698.0315)">
    <circle
       style="fill:#ffffff;fill-opacity:1;stroke:#000000;stroke-width:9.77633572;stroke-linecap:round;stroke-linejoin:miter;stroke-miterlimit:4;stroke-dasharray:none;stroke-opacity:0.94968549"
       id="path4697"
       cx="177.28178"
       cy="875.08044"
       r="171.72665" />
    <g
       style="fill-rule:evenodd;image-rendering:optimizeQuality;shape-rendering:geometricPrecision;text-rendering:geometricPrecision"
       id="g4759"
       transform="matrix(0.00933847,0,0,0.00933847,135.64607,719.4725)">
      <g
         transform="matrix(5.828176,0,0,5.82271,-19181.62,-26091.57)"
         id="Layer 1">
        <path
           id="path630"
           d="m 2720,6219 0,-218 c 420,192 827,287 1219,287 257,0 466,-33 627,-100 -102,-52 -179,-118 -230,-197 -51,-79 -77,-172 -77,-279 0,-140 51,-260 152,-361 100,-100 222,-150 362,-150 140,0 259,50 359,149 99,100 149,219 149,360 0,223 -136,409 -409,557 -273,148 -615,222 -1026,222 -356,0 -731,-89 -1126,-270 z m 1674,-506 c 0,102 37,190 112,264 74,74 164,111 267,111 104,0 192,-37 265,-108 72,-72 108,-160 108,-264 0,-106 -36,-196 -109,-270 -73,-74 -161,-111 -265,-111 -105,0 -194,37 -268,111 -73,73 -110,162 -110,267 z m 887,-961 0,218 c -421,-192 -827,-288 -1220,-288 -256,0 -466,33 -628,101 104,52 181,118 231,197 52,79 77,172 77,279 0,140 -50,260 -151,361 -101,100 -222,150 -363,150 -140,0 -259,-49 -358,-149 -99,-99 -149,-219 -149,-359 0,-224 136,-411 409,-559 272,-148 615,-222 1026,-222 356,0 731,90 1126,271 z m -1674,506 c 0,-103 -37,-191 -112,-265 -75,-73 -165,-110 -269,-110 -104,0 -192,36 -264,108 -72,72 -108,160 -108,264 0,106 37,196 110,270 72,74 161,111 265,111 104,0 194,-37 267,-111 74,-74 111,-163 111,-267 z"
           class="fil0"
           inkscape:connector-curvature="0"
           style="fill:#000000" />
      </g>
    </g>
    <g
       id="g4854"
       transform="matrix(0.05479016,0,0,0.05477385,-124.16693,608.94729)">
      <path
         id="path4856"
         d="m 3212,5895 0,-70 c 0,-131 -23,-314 -68,-552 -46,-238 -88,-394 -127,-468 -55,-105 -141,-158 -259,-158 l -38,0 0,-165 150,0 c 141,0 238,55 292,165 64,133 122,353 175,661 76,-340 202,-615 380,-826 l 265,-51 c 65,147 119,368 162,663 l 37,245 c 12,86 20,147 24,183 16,147 37,258 61,333 129,-247 308,-371 536,-371 137,0 254,48 350,142 97,94 145,209 145,344 0,144 -49,268 -146,368 -98,101 -217,151 -357,151 -191,0 -358,-74 -501,-222 -102,268 -192,439 -270,513 -78,74 -206,111 -384,111 l -182,0 0,-167 85,0 c 172,0 290,-35 355,-105 64,-69 147,-251 247,-546 -45,-79 -75,-146 -89,-199 -14,-53 -32,-169 -54,-349 l -51,-384 c -33,-253 -72,-427 -117,-522 -114,135 -213,318 -296,549 -84,231 -125,437 -125,619 l 0,108 -200,0 z m 1126,202 c 145,161 293,242 441,242 100,0 184,-35 251,-105 67,-69 100,-157 100,-261 0,-93 -32,-173 -96,-239 -63,-65 -141,-98 -232,-98 -197,0 -352,154 -464,461 z"
         inkscape:connector-curvature="0" />
    </g>
    <g
       style="fill-rule:evenodd;image-rendering:optimizeQuality;shape-rendering:geometricPrecision;text-rendering:geometricPrecision"
       id="g4875"
       transform="matrix(0.01152195,0,0,0.01152195,211.97751,845.09875)">
      <g
         transform="matrix(4.538455,0,0,4.531784,-13030.44,-20143.78)"
         id="Layer 1-3">
        <path
           id="path642"
           d="m 3086,5231 0,1258 -201,0 0,-1457 c 0,-202 -55,-386 -165,-550 l 212,0 c 75,103 126,236 154,397 68,-167 147,-299 236,-397 l 197,-37 c 90,116 147,270 171,462 46,-145 128,-287 245,-425 l 194,-37 c 109,151 163,318 163,501 l 0,382 c 54,-153 112,-274 172,-360 l 166,-61 c 143,221 214,454 214,698 0,194 -43,375 -128,545 -85,170 -214,328 -384,475 16,118 85,251 207,400 l -236,0 c -57,-72 -108,-168 -152,-287 -125,71 -279,121 -461,150 l 0,-172 c 172,-35 312,-86 422,-151 -14,-87 -21,-174 -21,-262 l 0,-1220 c 0,-199 -28,-349 -86,-451 -142,153 -247,369 -315,646 l 0,1211 -202,0 0,-1338 c 0,-249 -30,-422 -88,-519 -139,162 -243,361 -314,599 z m 1206,1206 c 118,-120 205,-248 264,-385 58,-137 87,-283 87,-436 0,-161 -35,-317 -105,-468 -100,123 -181,287 -246,492 l 0,797 z"
           class="fil0"
           inkscape:connector-curvature="0"
           style="fill:#000000" />
      </g>
    </g>
  </g>
</svg>
